<svg xmlns="http://www.w3.org/2000/svg" viewBox="0 0 3014 1371" width="800" height="364">
    <style>
		.renk { fill: #333 }
	</style>
    <g transform="translate(0.000000,1371.000000) scale(0.100000,-0.100000)" stroke="none">
        <g id="r">
            <path class="renk" d="M27168 13550 c-281 -51 -500 -215 -609 -455 -55 -123 -73 -207 -73 -345 1 -106 5 -138 27 -213 84 -275 258 -456 527 -549 90 -31 103 -32 240 -33 174 0 229 12 380 87 91 45 117 64 196 142 79 79 98 105 143 196 75 153 95 242 89 405 -6 144 -28 231 -94 355 -99 189 -275 328 -494 390 -84 23 -257 34 -332 20z m283 -146 c182 -45 340 -166 423 -323 65 -124 81 -191 80 -331 0 -109 -3 -135 -27 -202 -63 -181 -178 -314 -339 -392 -120 -58 -231 -81 -346 -72 -356 27 -622 315 -622 670 0 188 63 340 193 470 173 173 404 238 638 180z"/> 
            <path class="renk" d="M27152 13199 c-51 -4 -99 -10 -107 -13 -13 -5 -15 -67 -15 -446 l0 -440 60 0 60 0 0 196 0 197 83 -5 c131 -7 170 -38 201 -162 9 -34 25 -98 37 -143 l21 -83 64 0 c60 0 64 1 55 19 -6 10 -24 72 -40 138 -44 177 -62 215 -125 254 l-29 17 39 20 c100 52 147 155 124 269 -10 46 -21 65 -60 104 -72 72 -170 93 -368 78z m244 -115 c73 -54 93 -136 52 -214 -35 -67 -86 -90 -205 -90 l-93 0 0 166 0 166 109 -4 c92 -2 114 -6 137 -24z"/> 
        </g>
        <g id="akin">
            <path class="renk" d="M28330 11389 c0 -1238 -4 -2139 -9 -2137 -5 2 -244 215 -532 473 -288 259 -726 652 -974 875 -248 223 -822 738 -1276 1145 -453 407 -843 755 -866 773 -22 18 -79 52 -125 76 -346 183 -749 142 -1059 -109 -182 -147 -290 -358 -334 -650 -13 -87 -15 -421 -15 -2532 l0 -2433 805 0 805 0 2 1681 3 1682 605 -544 c1462 -1314 2796 -2512 2920 -2625 142 -128 206 -173 306 -217 150 -66 368 -92 534 -63 211 37 389 120 520 243 141 132 225 278 283 488 l21 80 3 2968 4 2967 -811 0 -810 0 0 -2141z"/> 
            <path class="renk" d="M6905 12684 c-302 -48 -568 -221 -829 -539 -150 -183 -258 -333 -871 -1220 -335 -484 -688 -995 -785 -1135 -97 -140 -552 -797 -1010 -1460 -458 -663 -933 -1349 -1055 -1525 -122 -176 -520 -752 -885 -1280 -365 -528 -798 -1153 -962 -1390 l-297 -430 527 -7 c290 -4 727 -7 971 -5 l445 2 773 1090 c425 600 946 1333 1157 1630 403 568 1986 2798 2625 3699 207 291 381 530 386 530 6 1 371 -523 811 -1164 l801 -1165 -1228 -3 -1227 -2 -528 -708 c-290 -389 -532 -713 -537 -719 -8 -10 657 -13 3316 -13 l3326 0 -208 303 c-114 166 -902 1315 -1751 2552 -939 1369 -1587 2305 -1656 2390 -284 353 -488 499 -772 551 -85 15 -471 28 -537 18z"/> 
            <path class="renk" d="M12460 9745 l0 -2875 880 0 880 0 0 1221 c0 770 4 1219 10 1217 5 -1 193 -165 417 -364 975 -862 1672 -1479 1995 -1766 l348 -308 1342 0 c1319 0 1342 0 1323 19 -11 10 -211 169 -445 353 -234 184 -821 646 -1305 1028 -484 381 -1151 907 -1483 1168 -331 262 -601 479 -600 483 2 4 392 294 868 645 1318 970 2752 2028 2769 2041 13 10 -255 12 -1260 13 l-1276 0 -204 -177 c-1204 -1047 -2453 -2129 -2460 -2131 -5 -2 -9 508 -9 1152 l0 1156 -895 0 -895 0 0 -2875z"/> 
            <path class="renk" d="M20290 9740 l0 -2860 885 0 885 0 0 2860 0 2860 -885 0 -885 0 0 -2860z"/> 
        </g>
        <g id="robotics">
            <path class="renk" d="M9292 6159 c-558 -29 -977 -169 -1217 -407 -209 -207 -305 -471 -305 -837 0 -664 327 -1040 1035 -1189 229 -48 382 -61 730 -61 247 0 353 5 465 18 806 100 1206 414 1291 1015 15 110 6 432 -16 527 -134 597 -607 887 -1525 935 -213 11 -233 11 -458 -1z m729 -653 c190 -27 302 -71 391 -154 100 -93 140 -220 140 -442 0 -402 -158 -556 -617 -601 -161 -15 -651 -15 -800 0 -240 26 -370 69 -464 157 -110 102 -151 225 -151 451 1 283 77 433 263 518 109 49 204 68 447 89 112 10 690 -3 791 -18z"/> 
            <path class="renk" d="M9391 5364 c-140 -37 -256 -135 -324 -273 l-42 -84 0 -126 c1 -115 3 -132 28 -192 96 -229 354 -362 582 -300 107 30 168 64 240 136 98 98 144 211 145 356 0 225 -156 427 -375 484 -73 19 -182 18 -254 -1z"/> 
            <path class="renk" d="M16610 6159 c-762 -40 -1244 -279 -1425 -709 -142 -335 -130 -821 26 -1133 228 -455 817 -676 1744 -654 478 11 823 81 1095 223 212 110 348 245 445 439 87 175 125 355 125 589 0 565 -252 930 -767 1109 -222 78 -465 120 -783 137 -212 11 -244 11 -460 -1z m591 -640 c402 -31 573 -128 646 -364 26 -87 26 -393 0 -480 -63 -203 -201 -306 -467 -350 -223 -36 -779 -39 -1020 -5 -274 38 -426 139 -489 323 -61 177 -43 491 35 625 86 146 272 227 575 251 166 12 564 13 720 0z"/> 
            <path class="renk" d="M16761 5364 c-180 -48 -316 -190 -365 -380 -22 -85 -20 -146 8 -236 57 -185 170 -298 355 -354 100 -31 177 -29 281 5 257 86 400 350 332 612 -68 259 -352 423 -611 353z"/> 
            <path class="renk" d="M4514 5863 c-114 -147 -225 -290 -247 -318 l-39 -50 1129 -5 c1040 -5 1132 -7 1180 -23 85 -29 144 -75 176 -137 25 -48 28 -64 25 -126 -3 -56 -9 -79 -30 -111 -33 -50 -103 -97 -188 -126 l-65 -22 -1112 -3 -1113 -3 0 -619 0 -620 375 0 375 0 0 320 0 320 573 0 573 0 269 -320 268 -320 499 0 c274 0 498 2 498 5 0 9 -499 531 -596 625 -49 47 -108 102 -131 121 l-43 36 99 32 c266 87 453 297 512 576 32 150 7 377 -56 510 -65 137 -213 279 -375 360 -141 70 -254 104 -464 137 -124 20 -176 22 -1008 25 l-876 4 -208 -268z"/> 
            <path class="renk" d="M12068 5978 c-69 -84 -184 -227 -256 -318 l-132 -165 1117 -5 1118 -5 41 -22 c49 -26 69 -67 68 -136 -1 -55 -23 -91 -75 -122 -33 -20 -54 -20 -1151 -23 l-1118 -2 0 -741 0 -740 1193 4 c1078 3 1200 5 1277 21 212 43 367 113 464 210 71 71 105 125 134 216 112 344 -9 667 -291 781 l-40 16 48 23 c77 37 170 132 210 214 84 170 84 390 0 556 -78 153 -242 274 -450 331 -191 52 -179 51 -1136 56 l-897 4 -124 -153z m1900 -1353 c47 -28 76 -94 68 -153 -7 -55 -30 -89 -77 -117 -33 -19 -55 -20 -781 -23 l-748 -2 0 160 0 160 753 -2 c729 -3 753 -4 785 -23z"/> 
            <path class="renk" d="M19243 6108 c-12 -13 -123 -156 -247 -318 l-227 -295 566 -3 565 -2 0 -895 0 -895 380 0 380 0 0 895 0 895 428 0 428 0 239 312 c132 171 242 315 243 320 2 4 -612 8 -1365 8 l-1370 0 -20 -22z"/> 
            <path class="renk" d="M22240 4915 l0 -1215 375 0 375 0 -2 1213 -3 1212 -372 3 -373 2 0 -1215z"/> 
            <path class="renk" d="M24662 6119 c-289 -22 -571 -114 -785 -256 -88 -58 -222 -185 -288 -273 -234 -311 -281 -738 -120 -1110 136 -315 427 -566 800 -690 255 -85 316 -90 1112 -90 l665 0 234 304 c129 167 236 309 238 315 2 7 -273 11 -930 13 -1052 4 -971 -2 -1147 84 -153 76 -258 196 -296 339 -19 73 -19 223 -1 291 51 191 217 346 446 415 74 23 83 23 766 29 l692 5 232 303 c127 167 234 310 237 318 4 12 -120 14 -873 13 -484 -1 -925 -5 -982 -10z"/> 
            <path class="renk" d="M27588 6119 c-287 -22 -527 -110 -662 -243 -141 -139 -204 -314 -193 -540 16 -354 223 -563 637 -643 73 -15 197 -18 900 -22 803 -6 816 -6 855 -27 55 -29 80 -75 79 -144 -1 -72 -24 -114 -77 -142 l-42 -23 -982 -5 c-540 -3 -983 -7 -985 -10 -3 -3 -111 -144 -241 -313 l-237 -308 1257 4 c1120 3 1267 6 1338 20 424 88 626 267 686 611 19 110 7 305 -24 395 -74 213 -243 338 -547 403 -90 20 -137 21 -930 27 l-835 6 -45 22 c-59 29 -80 66 -80 138 0 72 20 109 73 137 l42 23 907 5 907 5 235 309 c130 170 236 313 236 317 0 11 -2128 9 -2272 -2z"/> 
        </g>
        <g id="insan-deger">
            <path class="renk" d="M15386 2341 c-45 -30 -67 -73 -68 -130 0 -62 27 -105 78 -121 78 -26 159 9 188 80 30 76 13 146 -44 175 -41 21 -118 19 -154 -4z"/>
            <path class="renk" d="M23797 2313 c-2 -5 -28 -130 -58 -280 l-53 -272 -53 50 c-58 55 -114 83 -199 98 -329 61 -632 -144 -698 -471 -72 -354 124 -619 457 -618 106 0 251 46 310 98 25 22 31 9 19 -38 l-10 -41 121 3 121 3 141 705 c78 388 144 720 148 738 l7 32 -125 0 c-68 0 -126 -3 -128 -7z m-309 -639 c108 -53 154 -180 121 -336 -18 -82 -44 -134 -96 -189 -81 -87 -193 -126 -314 -109 -168 23 -252 154 -219 340 29 166 131 283 277 320 62 15 171 3 231 -26z"/>
            <path class="renk" d="M25776 2311 c-10 -16 13 -112 35 -148 80 -129 305 -170 477 -85 81 40 156 130 176 215 l6 27 -84 0 c-83 0 -84 0 -94 -27 -14 -42 -68 -89 -118 -103 -24 -7 -71 -10 -105 -8 -56 4 -65 8 -95 41 -23 25 -34 47 -34 67 l0 30 -79 0 c-44 0 -82 -4 -85 -9z"/>
            <path class="renk" d="M16285 1905 c-75 -17 -127 -39 -182 -77 -48 -32 -51 -28 -34 45 l9 37 -118 0 c-104 0 -119 -2 -124 -17 -7 -26 -206 -1029 -206 -1042 0 -7 41 -11 123 -11 l124 0 61 306 c69 340 91 404 163 469 69 62 120 80 229 80 118 0 162 -19 197 -85 34 -65 30 -118 -37 -457 -33 -167 -60 -305 -60 -308 0 -3 56 -5 124 -5 l124 0 10 48 c124 578 140 727 91 832 -36 76 -68 112 -136 147 -100 53 -230 67 -358 38z"/>
            <path class="renk" d="M17415 1909 c-129 -21 -243 -81 -301 -157 -93 -122 -80 -304 27 -382 55 -40 120 -63 269 -95 177 -39 220 -64 220 -130 0 -38 -56 -90 -111 -105 -115 -32 -322 -4 -447 59 l-60 30 -49 -92 c-26 -51 -49 -95 -51 -99 -2 -3 25 -20 60 -37 204 -100 521 -107 704 -16 132 65 195 163 195 301 0 162 -84 224 -403 294 -126 28 -162 51 -166 108 -3 37 1 47 27 71 42 39 109 56 221 55 100 -1 195 -21 263 -55 21 -11 41 -19 43 -17 2 2 22 44 44 93 48 102 48 103 -45 136 -125 44 -310 60 -440 38z"/>
            <path class="renk" d="M18500 1904 c-269 -58 -460 -308 -460 -603 0 -247 128 -418 349 -467 136 -31 306 -3 410 67 24 17 45 28 48 26 2 -2 -1 -23 -6 -46 l-9 -42 120 3 120 3 104 520 c57 286 104 526 104 533 0 9 -32 12 -124 12 l-125 0 -12 -75 c-6 -41 -13 -75 -15 -75 -2 0 -20 18 -40 40 -91 101 -281 144 -464 104z m310 -232 c205 -103 156 -482 -78 -601 -76 -39 -211 -45 -293 -13 -40 16 -98 70 -122 116 -19 35 -22 56 -21 141 1 114 15 162 70 242 95 139 294 191 444 115z"/>
            <path class="renk" d="M20065 1905 c-75 -17 -127 -39 -182 -77 -48 -32 -51 -28 -34 45 l9 37 -118 0 c-104 0 -119 -2 -124 -17 -7 -26 -206 -1029 -206 -1042 0 -7 41 -11 123 -11 l124 0 61 306 c69 340 91 404 163 469 69 62 120 80 229 80 118 0 162 -19 197 -85 34 -65 30 -118 -37 -457 -33 -167 -60 -305 -60 -308 0 -3 56 -5 124 -5 l124 0 10 48 c124 578 140 727 91 832 -36 76 -68 112 -136 147 -100 53 -230 67 -358 38z"/>
            <path class="renk" d="M21260 1904 c-269 -58 -460 -308 -460 -603 0 -247 128 -418 349 -467 136 -31 306 -3 410 67 24 17 45 28 48 26 2 -2 -1 -23 -6 -46 l-9 -42 120 3 120 3 104 520 c57 286 104 526 104 533 0 9 -32 12 -124 12 l-125 0 -12 -75 c-6 -41 -13 -75 -15 -75 -2 0 -20 18 -40 40 -91 101 -281 144 -464 104z m310 -232 c205 -103 156 -482 -78 -601 -76 -39 -211 -45 -293 -13 -40 16 -98 70 -122 116 -19 35 -22 56 -21 141 1 114 15 162 70 242 95 139 294 191 444 115z"/>
            <path class="renk" d="M24560 1904 c-167 -35 -331 -164 -403 -314 -84 -176 -88 -389 -10 -532 34 -63 127 -149 195 -181 180 -85 464 -69 637 35 80 49 80 51 26 143 -26 44 -48 81 -50 83 -1 2 -22 -11 -46 -27 -148 -104 -409 -103 -506 1 -32 34 -63 107 -63 151 l0 37 424 0 423 0 7 53 c28 238 -53 421 -227 508 -111 57 -269 73 -407 43z m239 -200 c73 -21 136 -81 156 -147 28 -95 56 -87 -290 -87 -168 0 -305 2 -305 5 0 14 52 106 76 134 77 92 235 133 363 95z"/>
            <path class="renk" d="M25800 1905 c-169 -38 -321 -152 -393 -296 -54 -107 -70 -183 -65 -298 8 -165 70 -276 197 -352 159 -96 413 -91 570 10 25 17 47 28 49 26 9 -8 -22 -113 -49 -166 -61 -123 -158 -171 -344 -171 -126 0 -216 21 -312 72 l-72 39 -57 -81 c-31 -45 -57 -88 -58 -97 -1 -22 96 -77 184 -105 158 -50 382 -59 525 -20 192 51 332 190 400 394 13 41 69 294 123 563 l99 487 -122 0 -122 0 -13 -77 c-7 -43 -14 -82 -17 -86 -2 -4 -17 10 -33 31 -32 45 -104 93 -175 117 -68 24 -231 29 -315 10z m299 -226 c95 -42 135 -106 135 -219 1 -220 -172 -376 -396 -357 -193 16 -287 157 -232 348 48 166 198 267 378 254 38 -3 90 -15 115 -26z"/>
            <path class="renk" d="M27190 1904 c-167 -35 -331 -164 -403 -314 -84 -176 -88 -389 -10 -532 34 -63 127 -149 195 -181 180 -85 464 -69 637 35 80 49 80 51 26 143 -26 44 -48 81 -50 83 -1 2 -22 -11 -46 -27 -148 -104 -409 -103 -506 1 -32 34 -63 107 -63 151 l0 37 424 0 423 0 7 53 c28 238 -53 421 -227 508 -111 57 -269 73 -407 43z m239 -200 c73 -21 136 -81 156 -147 28 -95 56 -87 -290 -87 -168 0 -305 2 -305 5 0 14 52 106 76 134 77 92 235 133 363 95z"/>
            <path class="renk" d="M28615 1905 c-81 -17 -127 -38 -188 -82 l-50 -37 7 40 c4 21 10 49 13 62 5 22 5 22 -114 22 l-120 0 -102 -512 c-56 -282 -105 -523 -108 -535 -5 -23 -5 -23 121 -23 122 0 126 1 131 23 3 12 30 144 60 294 31 157 65 294 79 326 30 70 87 132 146 162 55 28 167 50 216 42 19 -3 34 -5 34 -4 0 1 9 49 20 107 11 58 20 111 20 117 0 17 -85 16 -165 -2z"/>
            <path class="renk" d="M15266 1893 c-6 -21 -206 -1035 -206 -1046 0 -4 56 -7 124 -7 l124 0 101 518 c56 284 104 525 107 535 5 16 -5 17 -120 17 -110 0 -125 -2 -130 -17z"/>
            <path class="renk" d="M28805 1131 c-47 -29 -73 -62 -86 -111 -40 -154 137 -263 258 -157 119 104 61 287 -91 287 -32 0 -62 -7 -81 -19z"/>
            <path class="renk" d="M29295 1131 c-47 -29 -73 -62 -86 -111 -40 -154 137 -263 258 -157 119 104 61 287 -91 287 -32 0 -62 -7 -81 -19z"/>
            <path class="renk" d="M29775 1131 c-47 -29 -73 -62 -86 -111 -40 -154 137 -263 258 -157 119 104 61 287 -91 287 -32 0 -62 -7 -81 -19z"/> 
        </g> 
    </g> 
</svg> 
 