<svg xmlns="http://www.w3.org/2000/svg" viewBox="0 0 480 480">

  <!-- background -->
  <rect width="100%" height="100%" fill="#000000"/>

  <!-- row 4 -->
  <rect width="40" height="40" x="40" y="160" fill="white"/>
  <rect width="40" height="40" x="80" y="160" fill="white"/>
  <rect width="40" height="40" x="120" y="160" fill="white"/>
  <rect width="40" height="40" x="160" y="160" fill="white"/>
  <rect width="40" height="40" x="200" y="160" fill="white"/>
  <rect width="40" height="40" x="280" y="160" fill="white"/>
  <rect width="40" height="40" x="320" y="160" fill="white"/>
  <rect width="40" height="40" x="360" y="160" fill="white"/>
  <rect width="40" height="40" x="400" y="160" fill="white"/>

  <!-- row 5 -->
  <rect width="40" height="40" x="40" y="200" fill="white"/>
  <rect width="40" height="40" x="120" y="200" fill="white"/>
  <rect width="40" height="40" x="200" y="200" fill="white"/>
  <rect width="40" height="40" x="280" y="200" fill="white"/>

  <!-- row 6 -->
  <rect width="40" height="40" x="40" y="240" fill="white"/>
  <rect width="40" height="40" x="120" y="240" fill="white"/>
  <rect width="40" height="40" x="200" y="240" fill="white"/>
  <rect width="40" height="40" x="280" y="240" fill="white"/>
  <rect width="40" height="40" x="320" y="240" fill="white"/>
  <rect width="40" height="40" x="360" y="240" fill="white"/>
  <rect width="40" height="40" x="400" y="240" fill="white"/>

  <!-- row 7 -->
  <rect width="40" height="40" x="40" y="280" fill="white"/>
  <rect width="40" height="40" x="200" y="280" fill="white"/>
  <rect width="40" height="40" x="400" y="280" fill="white"/>

  <!-- row 8 -->
  <rect width="40" height="40" x="40" y="320" fill="white"/>
  <rect width="40" height="40" x="200" y="320" fill="white"/>
  <rect width="40" height="40" x="280" y="320" fill="white"/>
  <rect width="40" height="40" x="320" y="320" fill="white"/>
  <rect width="40" height="40" x="360" y="320" fill="white"/>
  <rect width="40" height="40" x="400" y="320" fill="white"/>

</svg>